<?xml version="1.0" encoding="UTF-8" standalone="no"?>
<!-- Created with Inkscape (http://www.inkscape.org/) -->

<svg
   width="15.323255mm"
   height="15.323255mm"
   viewBox="0 0 15.323254 15.323254"
   version="1.1"
   id="svg1"
   sodipodi:docname="reudzzi-logo-2.svg"
   xmlns:inkscape="http://www.inkscape.org/namespaces/inkscape"
   xmlns:sodipodi="http://sodipodi.sourceforge.net/DTD/sodipodi-0.dtd"
   xmlns="http://www.w3.org/2000/svg"
   xmlns:svg="http://www.w3.org/2000/svg">
  <sodipodi:namedview
     id="namedview1"
     pagecolor="#ffffff"
     bordercolor="#000000"
     borderopacity="0.25"
     inkscape:showpageshadow="2"
     inkscape:pageopacity="0.0"
     inkscape:pagecheckerboard="0"
     inkscape:deskcolor="#d1d1d1"
     inkscape:document-units="mm"
     showgrid="false" />
  <defs
     id="defs1">
    <clipPath
       clipPathUnits="userSpaceOnUse"
       id="clipPath12">
      <path
         d="M 0,841.89 H 595.276 V 0 H 0 Z"
         transform="translate(-75.723902,-798.71782)"
         id="path12" />
    </clipPath>
    <clipPath
       clipPathUnits="userSpaceOnUse"
       id="clipPath14">
      <path
         d="M 0,841.89 H 595.276 V 0 H 0 Z"
         transform="translate(-58.196902,-787.16762)"
         id="path14" />
    </clipPath>
    <clipPath
       clipPathUnits="userSpaceOnUse"
       id="clipPath10">
      <path
         d="M 0,841.89 H 595.276 V 0 H 0 Z"
         transform="translate(-63.449902,-816.88332)"
         id="path10" />
    </clipPath>
  </defs>
  <g
     id="layer1"
     transform="translate(-95.514583,-132.29167)">
    <path
       id="path9"
       d="m 0,0 c -11.995,0 -21.718,-9.724 -21.718,-21.718 0,-11.995 9.723,-21.718 21.718,-21.718 11.995,0 21.718,9.723 21.718,21.718 C 21.718,-9.724 11.995,0 0,0"
       style="fill:#ffffff;fill-opacity:1;fill-rule:nonzero;stroke:none"
       transform="matrix(0.35277776,0,0,-0.35277776,103.17621,132.29167)"
       clip-path="url(#clipPath10)" />
    <path
       id="path11"
       d="m 0,0 c 0,-1.02 -0.2,-2.011 -0.596,-2.945 -0.381,-0.901 -0.926,-1.71 -1.619,-2.404 -0.694,-0.693 -1.503,-1.238 -2.404,-1.619 -0.049,-0.021 -0.099,-0.041 -0.149,-0.061 l -5.447,5.447 h 2.651 c 0.88,0 1.595,0.723 1.582,1.607 -0.014,0.868 -0.738,1.557 -1.606,1.557 H -17.85 c -3.304,0 -5.982,2.679 -5.982,5.982 h 16.268 c 1.02,0 2.01,-0.2 2.945,-0.595 0.901,-0.381 1.71,-0.927 2.403,-1.62 0.694,-0.694 1.239,-1.502 1.62,-2.403 C -0.2,2.011 0,1.02 0,0 m -17.227,-1.582 h -5.378 l 11.452,-11.638 c 1.352,-1.374 3.199,-2.148 5.127,-2.148 h 5.379 L -12.099,-3.73 c -1.352,1.374 -3.2,2.148 -5.128,2.148"
       style="fill:#00395e;fill-opacity:1;fill-rule:nonzero;stroke:none"
       transform="matrix(0.35277776,0,0,-0.35277776,107.5062,138.70005)"
       clip-path="url(#clipPath12)" />
    <path
       id="path13"
       d="m 0,0 c 0,-0.066 -0.003,-0.131 -0.01,-0.197 -0.006,-0.065 -0.016,-0.131 -0.029,-0.195 -0.012,-0.065 -0.028,-0.128 -0.048,-0.191 -0.019,-0.063 -0.041,-0.125 -0.066,-0.186 -0.025,-0.061 -0.053,-0.12 -0.084,-0.178 -0.031,-0.058 -0.065,-0.115 -0.102,-0.17 -0.036,-0.054 -0.075,-0.107 -0.117,-0.158 -0.042,-0.051 -0.086,-0.1 -0.133,-0.146 -0.046,-0.047 -0.095,-0.091 -0.146,-0.133 -0.051,-0.041 -0.103,-0.081 -0.158,-0.117 -0.055,-0.037 -0.111,-0.07 -0.169,-0.101 C -1.12,-1.803 -1.18,-1.832 -1.241,-1.857 -1.301,-1.882 -1.363,-1.904 -1.426,-1.923 -1.489,-1.942 -1.553,-1.958 -1.618,-1.971 -1.682,-1.984 -1.747,-1.994 -1.813,-2 -1.878,-2.007 -1.944,-2.01 -2.01,-2.01 c -0.066,0 -0.131,0.003 -0.197,0.01 -0.065,0.006 -0.13,0.016 -0.195,0.029 -0.064,0.013 -0.128,0.029 -0.191,0.048 -0.063,0.019 -0.125,0.041 -0.186,0.066 -0.061,0.025 -0.12,0.054 -0.178,0.085 -0.058,0.031 -0.115,0.064 -0.169,0.101 -0.055,0.036 -0.108,0.076 -0.159,0.117 -0.051,0.042 -0.099,0.086 -0.146,0.133 -0.047,0.046 -0.091,0.095 -0.132,0.146 -0.042,0.051 -0.081,0.104 -0.118,0.158 -0.036,0.055 -0.07,0.112 -0.101,0.17 -0.031,0.058 -0.059,0.117 -0.085,0.178 -0.025,0.061 -0.047,0.123 -0.066,0.186 -0.019,0.063 -0.035,0.126 -0.048,0.191 -0.013,0.064 -0.022,0.13 -0.029,0.195 -0.006,0.066 -0.01,0.131 -0.01,0.197 0,0.066 0.004,0.132 0.01,0.197 0.007,0.066 0.016,0.131 0.029,0.195 0.013,0.065 0.029,0.128 0.048,0.191 0.019,0.063 0.041,0.125 0.066,0.186 0.026,0.061 0.054,0.12 0.085,0.178 0.031,0.058 0.065,0.115 0.101,0.17 0.037,0.054 0.076,0.107 0.118,0.158 0.041,0.051 0.085,0.1 0.132,0.146 0.047,0.047 0.095,0.091 0.146,0.133 0.051,0.041 0.104,0.081 0.159,0.117 0.054,0.037 0.111,0.071 0.169,0.102 0.058,0.031 0.117,0.059 0.178,0.084 0.061,0.025 0.123,0.047 0.186,0.066 0.063,0.019 0.127,0.035 0.191,0.048 0.065,0.013 0.13,0.023 0.195,0.029 0.066,0.007 0.131,0.01 0.197,0.01 0.066,0 0.132,-0.003 0.197,-0.01 0.066,-0.006 0.131,-0.016 0.195,-0.029 0.065,-0.013 0.129,-0.029 0.192,-0.048 0.063,-0.019 0.125,-0.041 0.185,-0.066 0.061,-0.025 0.121,-0.053 0.179,-0.084 0.058,-0.031 0.114,-0.065 0.169,-0.102 0.055,-0.036 0.107,-0.076 0.158,-0.117 0.051,-0.042 0.1,-0.086 0.146,-0.133 0.047,-0.046 0.091,-0.095 0.133,-0.146 0.042,-0.051 0.081,-0.104 0.117,-0.158 0.037,-0.055 0.071,-0.112 0.102,-0.17 C -0.206,0.889 -0.178,0.83 -0.153,0.769 -0.128,0.708 -0.106,0.646 -0.087,0.583 -0.067,0.52 -0.051,0.457 -0.039,0.392 -0.026,0.328 -0.016,0.263 -0.01,0.197 -0.003,0.132 0,0.066 0,0"
       style="fill:#00395e;fill-opacity:1;fill-rule:nonzero;stroke:none"
       transform="matrix(0.35277776,0,0,-0.35277776,101.32307,142.77471)"
       clip-path="url(#clipPath14)" />
  </g>
</svg>
